<svg xmlns="http://www.w3.org/2000/svg" viewBox="0 0 54 54"><path d="M34.8 27a7.8 7.8 0 1 1-7.8-7.8 7.9 7.9 0 0 1 7.8 7.8z" fill="currentColor"/><path d="M0 0v54h54V0zm27 40a13 13 0 1 1 13-13 13 13 0 0 1-13 13zm16.8 6.7c-1.6 0-3-.8-3-2.8h1.7a1.2 1.2 0 0 0 1.3 1.3 1.3 1.3 0 0 0 1.3-1.3 1.2 1.2 0 0 0-1.4-1.3h-.2v-1.5h.2c.9 0 1.2-.4 1.2-1.2a1.2 1.2 0 1 0-2.3-.1h-1.7a2.6 2.6 0 0 1 2.9-2.7 2.7 2.7 0 0 1 2.9 2.7 2.3 2.3 0 0 1-1.1 2 2.3 2.3 0 0 1 1.2 2.1 2.8 2.8 0 0 1-3 2.8z" fill="currentColor"/></svg>
