<svg xmlns="http://www.w3.org/2000/svg"><path d="M7.197 9.511c-1.289-1.058-2.15-2.363-2.602-3.105l-.337-.635c.118-.127 1.018-1.088 1.408-1.61.49-.655-.22-1.247-.22-1.247S3.445.92 2.99.523C2.535.127 2.01.347 2.01.347 1.052.964.06 1.5 0 4.083c-.002 2.417 1.837 4.91 3.825 6.84 1.992 2.18 4.726 4.365 7.37 4.363 2.587-.06 3.125-1.05 3.744-2.005 0 0 .22-.523-.176-.979-.397-.454-2.397-2.45-2.397-2.45s-.593-.71-1.25-.22c-.489.365-1.368 1.177-1.58 1.374.001 0-1.469-.781-2.339-1.495z" fill="#C00" fill-rule="nonzero"/></svg>
